<svg width="76" height="57" viewBox="0 0 76 57" fill="none" xmlns="http://www.w3.org/2000/svg">
<path d="M69.6667 0H6.33333C2.88167 0.126667 0.126667 2.88167 0 6.33333V50.6667C0.126667 54.1183 2.88167 56.8733 6.33333 57H69.6667C73.1183 56.8733 75.8733 54.1183 76 50.6667V6.33333C75.9417 4.67218 75.2557 3.09492 74.0804 1.91959C72.9051 0.744253 71.3278 0.0582839 69.6667 0ZM69.6667 50.6667H6.33333V6.33333H69.6667V50.6667ZM44.3333 44.3333V40.375C44.3333 35.1183 33.7567 32.4583 28.5 32.4583C23.2433 32.4583 12.6667 35.1183 12.6667 40.375V44.3333H44.3333ZM28.5 12.6667C26.4004 12.6667 24.3867 13.5007 22.9021 14.9854C21.4174 16.4701 20.5833 18.4837 20.5833 20.5833C20.5833 21.623 20.7881 22.6524 21.186 23.6129C21.5838 24.5734 22.1669 25.4461 22.9021 26.1813C24.3867 27.6659 26.4004 28.5 28.5 28.5C29.5396 28.5 30.5691 28.2952 31.5296 27.8974C32.4901 27.4995 33.3628 26.9164 34.0979 26.1813C34.8331 25.4461 35.4162 24.5734 35.814 23.6129C36.2119 22.6524 36.4167 21.623 36.4167 20.5833C36.4167 19.5437 36.2119 18.5142 35.814 17.5538C35.4162 16.5933 34.8331 15.7205 34.0979 14.9854C33.3628 14.2503 32.4901 13.6671 31.5296 13.2693C30.5691 12.8714 29.5396 12.6667 28.5 12.6667ZM44.3333 12.6667V15.8333H63.3333V12.6667H44.3333ZM44.3333 19V22.1667H63.3333V19H44.3333ZM44.3333 25.3333V28.5H57V25.3333H44.3333Z" fill="black"/>
</svg>
